# xmcd CD database file
#
# Track frame offsets:
#	300
#	37732
#	57081
#	73390
#	88977
#	115431
#	137817
#	162237
#
# Disc length: 2454 seconds
#
# Revision: 0
# Processed by: cddbd v1.5.2PL0 Copyright (c) Steve Scherf et al.
# Submitted via: CDex 1.51
#
DISCID=73099208
DTITLE=Conte Candoli - West Coast Wailers 
DYEAR=2007
DGENRE=Jazz
TTITLE0=Lover, Come Back To Me
TTITLE1=Comes Love
TTITLE2=Lover Man
TTITLE3=Pete's Alibi 
TTITLE4=Cheremoya
TTITLE5=Jordu
TTITLE6=Flamingo
TTITLE7=Marcia Lee
EXTD=YEAR: 2007
EXTT0=
EXTT1=
EXTT2=
EXTT3=
EXTT4=
EXTT5=
EXTT6=
EXTT7=
PLAYORDER=
